# xmcd
#
# Track frame offsets:
#	150
#	12252
#	22890
#	35310
#	48257
#	59812
#	71722
#	84272
#	96495
#	108212
#	120720
#	136455
#	148225
#	163375
#	180550
#	190635
#	208997
#	223467
#	237177
#	250475
#
# Disc length: 3497 seconds
#
# Revision: 1
# Processed by: cddbd v1.5.1PL0 Copyright (c) Steve Scherf et al.
# Submitted via: CDex 1.50Beta5
#
DISCID=300da714
DTITLE=ブルーコメッツ - GS大全集ブルーシャトウ
DYEAR=1900
DGENRE=
TTITLE0=ジャッキー吉川とブルー・コメッツ/青い瞳
TTITLE1=ジャッキー吉川とブルー・コメッツ/青い渚
TTITLE2=ジャッキー吉川とブルー・コメッツ/ブルーシャトウ
TTITLE3=ジャッキー吉川とブルー・コメッツ/マリアの泉
TTITLE4=ジャッキー吉川とブルー・コメッツ/北国の二人
TTITLE5=ジャッキー吉川とブルー・コメッツ/すみれ色の涙
TTITLE6=ジャッキー吉川とブルー・コメッツ/草原の輝き
TTITLE7=ジャッキー吉川とブルー・コメッツ/さよならのあとで
TTITLE8=ジャッキー吉川とブルー・コメッツ/それはキッスで始まった
TTITLE9=ジャッキー吉川とブルー・コメッツ/涙のゴーゴー
TTITLE10=ズーニーヴー/水夫のなげき
TTITLE11=ズーニーヴー/白いサンゴ礁
TTITLE12=ズーニーヴー/涙のオルガン
TTITLE13=ザ・ダーツ/ケメ子の歌
TTITLE14=ザ・タックスマン/恋よ恋よ恋よ
TTITLE15=スカイ・ホークス/天国からのお迎え
TTITLE16=スケルトンズ/星の王子さま
TTITLE17=ザ・ジェノバ/帰り道は遠かった
TTITLE18=ブルーコメッツ/ラスト・チャンス
TTITLE19=ザ・モージョ/欲ばりな恋
EXTD=
EXTT0=
EXTT1=
EXTT2=
EXTT3=
EXTT4=
EXTT5=
EXTT6=
EXTT7=
EXTT8=
EXTT9=
EXTT10=
EXTT11=
EXTT12=
EXTT13=
EXTT14=
EXTT15=
EXTT16=
EXTT17=
EXTT18=
EXTT19=
PLAYORDER=
